<svg xmlns="http://www.w3.org/2000/svg" width="112" height="16" viewBox="0 0 112 16"><defs><style>.a{fill:#fd972f;}</style></defs><g transform="translate(-541 -3127)"><path class="a" d="M7.137,1.478a1,1,0,0,1,1.727,0l1.725,2.953a1,1,0,0,0,.618.465l3.278.832a1,1,0,0,1,.531,1.6L12.78,10.084a1,1,0,0,0-.22.7l.263,3.563a1,1,0,0,1-1.4.991L8.4,14.026a1,1,0,0,0-.8,0L4.573,15.341a1,1,0,0,1-1.4-.991l.263-3.563a1,1,0,0,0-.22-.7L.984,7.326a1,1,0,0,1,.531-1.6L4.794,4.9a1,1,0,0,0,.618-.465Z" transform="translate(541 3127)"/><path class="a" d="M7.137,1.478a1,1,0,0,1,1.727,0l1.725,2.953a1,1,0,0,0,.618.465l3.278.832a1,1,0,0,1,.531,1.6L12.78,10.084a1,1,0,0,0-.22.7l.263,3.563a1,1,0,0,1-1.4.991L8.4,14.026a1,1,0,0,0-.8,0L4.573,15.341a1,1,0,0,1-1.4-.991l.263-3.563a1,1,0,0,0-.22-.7L.984,7.326a1,1,0,0,1,.531-1.6L4.794,4.9a1,1,0,0,0,.618-.465Z" transform="translate(589 3127)"/><path class="a" d="M7.137,1.478a1,1,0,0,1,1.727,0l1.725,2.953a1,1,0,0,0,.618.465l3.278.832a1,1,0,0,1,.531,1.6L12.78,10.084a1,1,0,0,0-.22.7l.263,3.563a1,1,0,0,1-1.4.991L8.4,14.026a1,1,0,0,0-.8,0L4.573,15.341a1,1,0,0,1-1.4-.991l.263-3.563a1,1,0,0,0-.22-.7L.984,7.326a1,1,0,0,1,.531-1.6L4.794,4.9a1,1,0,0,0,.618-.465Z" transform="translate(565 3127)"/><path class="a" d="M7.137,1.478a1,1,0,0,1,1.727,0l1.725,2.953a1,1,0,0,0,.618.465l3.278.832a1,1,0,0,1,.531,1.6L12.78,10.084a1,1,0,0,0-.22.7l.263,3.563a1,1,0,0,1-1.4.991L8.4,14.026a1,1,0,0,0-.8,0L4.573,15.341a1,1,0,0,1-1.4-.991l.263-3.563a1,1,0,0,0-.22-.7L.984,7.326a1,1,0,0,1,.531-1.6L4.794,4.9a1,1,0,0,0,.618-.465Z" transform="translate(613 3127)"/><path class="a" d="M7.137,1.478a1,1,0,0,1,1.727,0l1.725,2.953a1,1,0,0,0,.618.465l3.278.832a1,1,0,0,1,.531,1.6L12.78,10.084a1,1,0,0,0-.22.7l.263,3.563a1,1,0,0,1-1.4.991L8.4,14.026a1,1,0,0,0-.8,0L4.573,15.341a1,1,0,0,1-1.4-.991l.263-3.563a1,1,0,0,0-.22-.7L.984,7.326a1,1,0,0,1,.531-1.6L4.794,4.9a1,1,0,0,0,.618-.465Z" transform="translate(637 3127)"/></g></svg>