<svg xmlns="http://www.w3.org/2000/svg" width="215.022" height="40" viewBox="0 0 215.022 40">
  <g id="ielts_logo" data-name="ielts logo" transform="translate(-236.472 -178)">
    <g id="组_5" data-name="组 5" transform="translate(236.472 178)">
      <g id="组_30437" data-name="组 30437">
        <g id="组_8" data-name="组 8">
          <path id="路径_5" data-name="路径 5" d="M28,40H12A12,12,0,0,1,0,28V12A12,12,0,0,1,12,0H28A12,12,0,0,1,40,12V28A12,12,0,0,1,28,40" fill="#0058fe"/>
          <path id="路径_6" data-name="路径 6" d="M65.123,46.734a4.2,4.2,0,0,0-2.932-1.663,3.677,3.677,0,0,0-2.6,6.5,3.59,3.59,0,0,0,5.021-.373c1.087-1.224.734-2.516,2.568-3.232,1.936-.756,3.828-.009,3.977,2.214.213,3.175-2.088,7.219-4.188,9.48-1.252,1.349-4.087,3.792-5.858,4.216-.827.2-3.145.279-3.58-.647-.27-.575.182-.993.5-1.414.781-1.032,1.629-2.016,2.42-3.041a18.482,18.482,0,0,0,3.14-5.152,5.629,5.629,0,0,1-5,2.238c-4.008-.44-6.106-4.334-5.749-8.089.608-6.4,7.782-9.665,13.262-6.615l0,0a.587.587,0,0,1,.216.881c-.059.1-.116.191-.158.265a8.743,8.743,0,0,0-1.046,4.432" transform="translate(-42.245 -32)" fill="#fff"/>
          <path id="路径_7" data-name="路径 7" d="M121.841,52.267a6.782,6.782,0,0,1-2.43,1.149,7.153,7.153,0,0,0-2.494,1.576c-.1.1-.486.638-.526.662-.223.132-.176-.334-.169-.474a8.341,8.341,0,0,1,3.327-5.56,1.752,1.752,0,0,1,2.292,2.648" transform="translate(-92.971 -39.41)" fill="#fff"/>
        </g>
      </g>
      <path id="路径_84952" data-name="路径 84952" d="M12.887-76.166a2.04,2.04,0,0,1-1.564-.579,2.255,2.255,0,0,1-.543-1.606v-19.5a2.243,2.243,0,0,1,.543-1.622,2.073,2.073,0,0,1,1.564-.563,2.073,2.073,0,0,1,1.564.563,2.243,2.243,0,0,1,.543,1.622v19.5a2.3,2.3,0,0,1-.527,1.606A2.03,2.03,0,0,1,12.887-76.166Zm9.416-.265a2.243,2.243,0,0,1-1.663-.579,2.271,2.271,0,0,1-.576-1.672V-97.518a2.271,2.271,0,0,1,.576-1.672,2.243,2.243,0,0,1,1.663-.579H34.056a1.748,1.748,0,0,1,1.267.43,1.626,1.626,0,0,1,.444,1.225,1.73,1.73,0,0,1-.444,1.274,1.709,1.709,0,0,1-1.267.447H24.113v6.422h9.218a1.738,1.738,0,0,1,1.284.43,1.71,1.71,0,0,1,.428,1.258,1.71,1.71,0,0,1-.428,1.258,1.738,1.738,0,0,1-1.284.43H24.113v6.786h9.942a1.748,1.748,0,0,1,1.267.43,1.672,1.672,0,0,1,.444,1.258,1.672,1.672,0,0,1-.444,1.258,1.748,1.748,0,0,1-1.267.43Zm19.556,0a2.1,2.1,0,0,1-1.58-.579,2.214,2.214,0,0,1-.56-1.606v-19.1a2.184,2.184,0,0,1,.543-1.606,2.11,2.11,0,0,1,1.564-.546,2.11,2.11,0,0,1,1.564.546,2.184,2.184,0,0,1,.543,1.606v17.677H53.48a1.882,1.882,0,0,1,1.366.463,1.761,1.761,0,0,1,.477,1.324,1.818,1.818,0,0,1-.477,1.341,1.843,1.843,0,0,1-1.366.48Zm19.786.265a2.04,2.04,0,0,1-1.564-.579,2.255,2.255,0,0,1-.543-1.606V-96.227h-6.42a1.8,1.8,0,0,1-1.333-.48,1.772,1.772,0,0,1-.477-1.308,1.705,1.705,0,0,1,.477-1.308,1.875,1.875,0,0,1,1.333-.447H70.171a1.875,1.875,0,0,1,1.333.447,1.705,1.705,0,0,1,.477,1.308,1.772,1.772,0,0,1-.477,1.308,1.8,1.8,0,0,1-1.333.48h-6.42v17.876a2.3,2.3,0,0,1-.527,1.606A2.03,2.03,0,0,1,61.644-76.166Zm19.984.066a19.693,19.693,0,0,1-2.9-.215A15,15,0,0,1,76-76.977a10.644,10.644,0,0,1-2.3-1.109,2.133,2.133,0,0,1-.823-.96,2.07,2.07,0,0,1-.148-1.109,1.913,1.913,0,0,1,.428-.96,1.457,1.457,0,0,1,.872-.513,1.6,1.6,0,0,1,1.152.3,11.213,11.213,0,0,0,3.062,1.258,14.136,14.136,0,0,0,3.391.4,6.437,6.437,0,0,0,3.786-.877A2.7,2.7,0,0,0,86.6-82.82a2.192,2.192,0,0,0-.84-1.821,7.258,7.258,0,0,0-2.881-1.092l-3.621-.761A8.933,8.933,0,0,1,74.6-88.729a5.7,5.7,0,0,1-1.531-4.154,6.525,6.525,0,0,1,.658-2.946,6.743,6.743,0,0,1,1.86-2.284,8.6,8.6,0,0,1,2.864-1.473,12.407,12.407,0,0,1,3.671-.513,13.89,13.89,0,0,1,3.753.5,10.837,10.837,0,0,1,3.193,1.457,1.783,1.783,0,0,1,.708.894,2,2,0,0,1,.082,1.043,1.661,1.661,0,0,1-.461.877,1.492,1.492,0,0,1-.905.43,2.027,2.027,0,0,1-1.235-.331,9.343,9.343,0,0,0-2.469-.993,11.635,11.635,0,0,0-2.7-.3,7.059,7.059,0,0,0-2.6.43,3.7,3.7,0,0,0-1.663,1.208,3,3,0,0,0-.576,1.837,2.436,2.436,0,0,0,.79,1.9,5.894,5.894,0,0,0,2.7,1.109l3.588.761a10.133,10.133,0,0,1,4.856,2.185,5.174,5.174,0,0,1,1.6,3.972,6.379,6.379,0,0,1-.642,2.88,6.353,6.353,0,0,1-1.844,2.218A8.706,8.706,0,0,1,85.414-76.6,13.343,13.343,0,0,1,81.628-76.1Z" transform="translate(41.22 108.1)" fill="#171c1d"/>
    </g>
    <path id="路径_85110" data-name="路径 85110" d="M2.816.154A.863.863,0,0,1,2.145-.1a.989.989,0,0,1-.231-.693V-14.586a.915.915,0,0,1,.242-.693.948.948,0,0,1,.682-.231H8.052a5.492,5.492,0,0,1,3.828,1.221,4.418,4.418,0,0,1,1.342,3.443A4.426,4.426,0,0,1,11.88-7.414,5.46,5.46,0,0,1,8.052-6.182H3.718v5.39A1.021,1.021,0,0,1,3.5-.1.857.857,0,0,1,2.816.154Zm.9-7.854H7.832a3.97,3.97,0,0,0,2.7-.8,2.954,2.954,0,0,0,.913-2.343,2.982,2.982,0,0,0-.913-2.365,3.97,3.97,0,0,0-2.7-.8H3.718ZM16.28.154a.884.884,0,0,1-.671-.242.948.948,0,0,1-.231-.682V-9.944a.937.937,0,0,1,.22-.671.84.84,0,0,1,.638-.231.877.877,0,0,1,.649.231.909.909,0,0,1,.231.671v1.782H16.9a3.48,3.48,0,0,1,1.342-2,4.342,4.342,0,0,1,2.442-.748.719.719,0,0,1,.528.143.752.752,0,0,1,.22.561.782.782,0,0,1-.176.594.927.927,0,0,1-.616.264l-.352.044a3.517,3.517,0,0,0-2.3.957,3.1,3.1,0,0,0-.8,2.255V-.77a.948.948,0,0,1-.231.682A.884.884,0,0,1,16.28.154ZM26.51.2a4.389,4.389,0,0,1-1.969-.429,3.483,3.483,0,0,1-1.375-1.177A2.917,2.917,0,0,1,22.66-3.08a2.718,2.718,0,0,1,.6-1.87,3.564,3.564,0,0,1,2-.968A19.959,19.959,0,0,1,29.084-6.2h.99v1.166h-.968a18.555,18.555,0,0,0-2.8.165,2.671,2.671,0,0,0-1.43.561,1.494,1.494,0,0,0-.407,1.122,1.9,1.9,0,0,0,.627,1.474,2.434,2.434,0,0,0,1.7.572,2.872,2.872,0,0,0,1.551-.418A2.944,2.944,0,0,0,29.4-2.706a3.515,3.515,0,0,0,.385-1.672V-6.886a2.885,2.885,0,0,0-.55-1.969,2.337,2.337,0,0,0-1.8-.6,6.162,6.162,0,0,0-1.54.2,7.918,7.918,0,0,0-1.628.638.777.777,0,0,1-.528.1.612.612,0,0,1-.352-.231.789.789,0,0,1-.154-.407.768.768,0,0,1,.1-.451.861.861,0,0,1,.385-.352,8.682,8.682,0,0,1,1.914-.7,7.968,7.968,0,0,1,1.8-.22,5.105,5.105,0,0,1,2.288.451,2.884,2.884,0,0,1,1.342,1.364,5.407,5.407,0,0,1,.44,2.343V-.77a1.011,1.011,0,0,1-.209.682.756.756,0,0,1-.6.242.818.818,0,0,1-.638-.242.978.978,0,0,1-.22-.682V-2.486h.2a3.233,3.233,0,0,1-.671,1.43,3.394,3.394,0,0,1-1.221.924A3.89,3.89,0,0,1,26.51.2ZM39.336.2a5.262,5.262,0,0,1-2.772-.7,4.665,4.665,0,0,1-1.793-1.969,6.534,6.534,0,0,1-.627-2.937A6.94,6.94,0,0,1,34.5-7.7,4.7,4.7,0,0,1,35.53-9.427a4.493,4.493,0,0,1,1.639-1.089,5.916,5.916,0,0,1,2.167-.374,6.073,6.073,0,0,1,1.65.242,4.145,4.145,0,0,1,1.562.836.7.7,0,0,1,.286.374.713.713,0,0,1,0,.429.8.8,0,0,1-.22.352.637.637,0,0,1-.385.165.689.689,0,0,1-.473-.154,3.593,3.593,0,0,0-1.166-.616,4.022,4.022,0,0,0-1.144-.176,3.757,3.757,0,0,0-1.5.275,2.96,2.96,0,0,0-1.078.781A3.421,3.421,0,0,0,36.2-7.128,5.9,5.9,0,0,0,35.97-5.39a4.663,4.663,0,0,0,.9,3.025,3.125,3.125,0,0,0,2.574,1.111,3.912,3.912,0,0,0,1.133-.176,3.876,3.876,0,0,0,1.177-.616.674.674,0,0,1,.462-.154.625.625,0,0,1,.374.165.721.721,0,0,1,.209.363.775.775,0,0,1-.011.429A.706.706,0,0,1,42.5-.88a4.485,4.485,0,0,1-1.54.825A5.607,5.607,0,0,1,39.336.2ZM49.28.2a4.431,4.431,0,0,1-2.1-.451,2.865,2.865,0,0,1-1.265-1.32A4.87,4.87,0,0,1,45.5-3.7v-5.61H44.022a.8.8,0,0,1-.572-.187.677.677,0,0,1-.2-.517.641.641,0,0,1,.2-.506.834.834,0,0,1,.572-.176H45.5v-2.53a.884.884,0,0,1,.242-.671.916.916,0,0,1,.66-.231.877.877,0,0,1,.649.231.909.909,0,0,1,.231.671v2.53H50.05a.834.834,0,0,1,.572.176.641.641,0,0,1,.2.506.677.677,0,0,1-.2.517.8.8,0,0,1-.572.187H47.278v5.434a2.958,2.958,0,0,0,.528,1.9,2.087,2.087,0,0,0,1.716.649,2.539,2.539,0,0,0,.715-.088,1.809,1.809,0,0,1,.5-.088.36.36,0,0,1,.33.132.818.818,0,0,1,.132.528,1.166,1.166,0,0,1-.1.484.569.569,0,0,1-.341.308,5.129,5.129,0,0,1-.693.165A4.454,4.454,0,0,1,49.28.2ZM53.7.11a.828.828,0,0,1-.66-.253,1.056,1.056,0,0,1-.22-.715v-9a1.013,1.013,0,0,1,.22-.7.848.848,0,0,1,.66-.242.892.892,0,0,1,.66.242.954.954,0,0,1,.242.7v9a1.023,1.023,0,0,1-.231.715A.863.863,0,0,1,53.7.11Zm0-13.376a1.185,1.185,0,0,1-.858-.3,1.063,1.063,0,0,1-.308-.8,1.02,1.02,0,0,1,.308-.8,1.243,1.243,0,0,1,.858-.275,1.236,1.236,0,0,1,.869.275,1.041,1.041,0,0,1,.3.8,1.085,1.085,0,0,1-.3.8A1.178,1.178,0,0,1,53.7-13.266ZM62.458.2a5.262,5.262,0,0,1-2.772-.7,4.665,4.665,0,0,1-1.793-1.969,6.534,6.534,0,0,1-.627-2.937A6.94,6.94,0,0,1,57.618-7.7a4.7,4.7,0,0,1,1.034-1.727,4.493,4.493,0,0,1,1.639-1.089,5.916,5.916,0,0,1,2.167-.374,6.073,6.073,0,0,1,1.65.242,4.145,4.145,0,0,1,1.562.836.7.7,0,0,1,.286.374.714.714,0,0,1,0,.429.8.8,0,0,1-.22.352.637.637,0,0,1-.385.165.689.689,0,0,1-.473-.154,3.593,3.593,0,0,0-1.166-.616,4.022,4.022,0,0,0-1.144-.176,3.757,3.757,0,0,0-1.5.275,2.96,2.96,0,0,0-1.078.781,3.421,3.421,0,0,0-.671,1.254,5.9,5.9,0,0,0-.231,1.738,4.663,4.663,0,0,0,.9,3.025,3.125,3.125,0,0,0,2.574,1.111A3.912,3.912,0,0,0,63.7-1.43a3.876,3.876,0,0,0,1.177-.616A.674.674,0,0,1,65.34-2.2a.625.625,0,0,1,.374.165.721.721,0,0,1,.209.363.775.775,0,0,1-.011.429.706.706,0,0,1-.286.363,4.485,4.485,0,0,1-1.54.825A5.607,5.607,0,0,1,62.458.2ZM72.71.2a5.966,5.966,0,0,1-2.915-.671,4.682,4.682,0,0,1-1.892-1.9,6.079,6.079,0,0,1-.671-2.948,6.129,6.129,0,0,1,.66-2.915,4.946,4.946,0,0,1,1.815-1.947,5.033,5.033,0,0,1,2.673-.7,4.925,4.925,0,0,1,1.936.363,4.025,4.025,0,0,1,1.463,1.045,4.638,4.638,0,0,1,.924,1.65,6.939,6.939,0,0,1,.319,2.178.635.635,0,0,1-.2.517.872.872,0,0,1-.572.165H68.6V-6.138h7.238l-.352.286a5.127,5.127,0,0,0-.352-2.013A2.759,2.759,0,0,0,74.107-9.13a3.008,3.008,0,0,0-1.683-.44,3.371,3.371,0,0,0-1.9.517,3.192,3.192,0,0,0-1.177,1.43,5.3,5.3,0,0,0-.4,2.123v.132a4.375,4.375,0,0,0,.979,3.08A3.607,3.607,0,0,0,72.71-1.232a5.7,5.7,0,0,0,1.485-.2,4.978,4.978,0,0,0,1.441-.66.98.98,0,0,1,.561-.187.616.616,0,0,1,.407.154.72.72,0,0,1,.209.352.7.7,0,0,1-.044.451.9.9,0,0,1-.385.418,5.471,5.471,0,0,1-1.716.814A7.03,7.03,0,0,1,72.71.2Z" transform="translate(374.472 206)" fill="#3d3f40"/>
  </g>
</svg>
